<svg width="303" height="486" viewBox="0 0 303 486" xmlns="http://www.w3.org/2000/svg" xmlns:xlink="http://www.w3.org/1999/xlink">
  <defs>
    <ellipse id="a" cx="13.171" cy="13.716" rx="13.022" ry="13.004"/>
  </defs>
  <g fill="none" fill-rule="evenodd">
    <path d="M261.544 125.77c-21.669-16.103-32.914-40.754-40.498-23.042-7.585 17.713 16.537 11.597 37.778 27.2C422.788 250.356 33.487 319.958 35.051 485.875c.348-165.5 392.782-236.533 226.493-360.107z" fill="#78AF9F" fill-opacity=".2"/>
    <path d="M36.11 18.72c7.32 8.964 48.912 43.932 98.65 67.125 49.736 23.193 75.246 20.654 75.246 20.654l6.145-13.178s-15.175-21.01-64.381-43.956C102.564 26.42 62.316 19.58 37.197 16.388c-9.236-4.307-10.177-1.908-1.087 2.331z" fill="#78AF9F"/>
    <path d="M.388.492S27.02 14.48 36.11 18.719c2.8 3.43 10.62 10.668 21.992 19.595 4.49-5.508 6.572-10.29 8.187-17.227-11.155-2.238-20.923-3.662-29.092-4.7C27.961 12.082.388.493.388.493z" fill="#8EFCDC"/>
    <path d="M152.388 42l41.215 16.32-14.654 25.925s4.965 1.976 10.877 4.733c10.033-36.951 53.746-21.76 79.238-19.55l3.49-4.115-116.53-24.25-3.636.937z" fill="#78AF9F"/>
    <path fill="#8EFCDC" d="M152.388 42l120.166 23.313L154.7 37.417z"/>
    <path d="M159.626 96.326s20.26 8.08 37.397 9.774l10.167-21.804c-11.887-12.953-31.459-22.509-31.459-22.509l-16.105 34.54z" fill="#008064"/>
    <g transform="scale(-1 1) rotate(-25 32.748 286.352)">
      <mask id="b" fill="#fff">
        <use xlink:href="#a"/>
      </mask>
      <use fill="#8EFCDC" xlink:href="#a"/>
      <path d="M8.342 30.825c.718.132.98-.31.98-.691 0-.34-.013-1.242-.02-2.438-3.992.866-4.835-1.921-4.835-1.921-.653-1.657-1.594-2.097-1.594-2.097-1.303-.89.099-.872.099-.872 1.44.102 2.198 1.478 2.198 1.478 1.28 2.19 3.36 1.557 4.178 1.19.13-.925.502-1.557.911-1.915-3.187-.362-6.538-1.592-6.538-7.085 0-1.565.56-2.845 1.478-3.846-.148-.363-.641-1.82.14-3.794 0 0 1.205-.385 3.947 1.47a13.766 13.766 0 0 1 3.594-.483c1.22.006 2.447.164 3.593.483 2.74-1.855 3.944-1.47 3.944-1.47.783 1.973.29 3.431.143 3.794.92 1.001 1.475 2.281 1.475 3.846 0 5.507-3.356 6.719-6.553 7.073.515.443.974 1.318.974 2.654 0 1.917-.018 3.463-.018 3.933 0 .384.26.83.987.69-3.627.82-4.946.848-9.083 0z" fill="#005442" mask="url(#b)"/>
    </g>
    <path d="M36.11 18.72c7.32 8.964 48.912 43.932 98.65 67.125 29.571 13.79 50.579 18.483 62.752 20.022 5.215-11.185 6.152-13.193 9.416-21.317-9.926 12.845-38.093-3.004-67.278-16.613C108.477 53.4 78.628 40.045 63.074 30.6c.558-1.197 1.525-2.857 3.218-9.447-9.34 15.726-26.054.654-29.917-3.003l-.265.568z" fill-opacity=".107" fill="#000"/>
    <path d="M129.514 91.053l38.995 21.082 4.5-12.025c.476-1.019 2.114-3.258 6.098-2.045 3.985 1.213 5.356 2.943 4.605 4.555-5.027 25.056 26.331 44.677 41.811 60.18l-.909 5.32-93.04-72.464-2.06-4.603z" fill="#78AF9F"/>
    <path fill="#458371" d="M129.514 91.053l95.1 77.066-97.124-72.35z"/>
  </g>
</svg>
