<svg width="110" height="19" viewBox="0 0 110 19" xmlns="http://www.w3.org/2000/svg">
    <path d="M.55 17.256c0-.144.023-.312.12-.504L7.484 1.848c.24-.528.6-.84 1.2-.84h.096c.576 0 .96.312 1.176.84l6.816 14.88c.072.168.12.336.12.48a.912.912 0 0 1-.912.912c-.456 0-.768-.312-.936-.696l-1.752-3.864H4.077l-1.752 3.912c-.168.408-.48.648-.912.648a.86.86 0 0 1-.864-.864zm4.271-5.424h7.728L8.685 3.24l-3.864 8.592zm31.314 5.328c0 .528.432.96.96.96s.96-.432.96-.96V2.952h4.872c.48 0 .888-.384.888-.864a.902.902 0 0 0-.888-.888H31.263a.902.902 0 0 0-.888.888c0 .48.408.864.888.864h4.872V17.16zm31.001 1.128c-5.112 0-8.544-4.008-8.544-8.64V9.6c0-4.632 3.48-8.688 8.592-8.688s8.544 4.008 8.544 8.64V9.6c0 4.632-3.48 8.688-8.592 8.688zm.048-1.752c3.84 0 6.576-3.072 6.576-6.888V9.6c0-3.816-2.784-6.936-6.624-6.936S60.56 5.736 60.56 9.552V9.6c0 3.816 2.784 6.936 6.624 6.936zm25.793.648c0 .528.408.936.912.936a.922.922 0 0 0 .936-.936V4.656l5.352 7.872c.216.312.48.48.816.48.336 0 .576-.168.792-.48l5.376-7.896V17.16c0 .504.432.96.96.96.504 0 .936-.432.936-.96V2.064a.953.953 0 0 0-.936-.936h-.216c-.384 0-.696.192-.888.504l-6 9.024-6-9.024c-.192-.288-.48-.504-.888-.504h-.216a.953.953 0 0 0-.936.936v15.12z" fill="#EED9B7" fill-rule="evenodd"/>
</svg>
