<svg width="490" height="230" viewBox="0 0 490 230" xmlns="http://www.w3.org/2000/svg">
    <g stroke-width="2" stroke="#659CC8" fill="none" fill-rule="evenodd">
        <path d="M58.933.562C37.441 34.543 25 74.82 25 118c0 35.607 8.46 69.239 23.478 98.994m386.537 11.956C454.075 196.377 465 158.464 465 118c0-42.9-12.28-82.934-33.516-116.775" opacity=".164" stroke-dasharray="31,7,8"/>
        <path d="M467.113 194.948C475.463 170.84 480 144.95 480 118c0-22-3.023-43.293-8.676-63.488M27.826 28.06C16.34 55.764 10 86.141 10 118c0 22.158 3.067 43.599 8.798 63.923" opacity=".12" stroke-dasharray="3,8,34"/>
        <path d="M5.892 69.144A245.116 245.116 0 0 0 1 118c0 13.187 1.046 26.13 3.06 38.749m484.11-18.487c.55-6.681.83-13.439.83-20.262 0-12.898-1-25.562-2.929-37.92" opacity=".08" stroke-dasharray="2,6,8"/>
    </g>
</svg>
