<svg width="552" height="691" viewBox="0 0 552 691" xmlns="http://www.w3.org/2000/svg" xmlns:xlink="http://www.w3.org/1999/xlink">
    <defs>
        <path d="M3.572 20.595c-4.858 13.383.535 27.963 1.975 31.11-7.354 11.475-6.092 25.84-3.046 37.662s10.137 23.746 19.506 30.262c14.043 9.767 35.542 8.926 35.542 8.926v2.123s-3.848 1.4-9.487 7.234c-4.286 4.434-7.24 4.563-10.116 3.321-2.414-1.042-2.037-4.44-2.43-10.276-.286-4.234-5.355-2.402-7.092 1.95-3.35 8.388-.162 16.054 6.47 19.015 10.746 4.797 22.655-7.428 22.655-7.428s1.412 8.811-1.1 11.553c-2.487 2.715-6.065 2.19-9.592-1.136-1.966-1.854-4.783-.292-4.407 2.377.715 5.091 4.445 9.938 10.53 9.938 7.479 0 15.306-4.102 14.937-14.676-.607-17.366 1.578-18.477 1.578-18.477s.833 6.869 4.005 19.226c2.196 8.55-4.629 12.59-9.599 14.315-4.2 1.457-6.557 5.28-1.307 6.47 8.236 1.869 15.048-.43 19.871-8.653 4.093-6.975 1.9-11.284-.587-23.327-1.035-5.015-1.14-10.242-1.14-10.242l1.727-.14s-.282 3.285 2.595 14.221c2.33 8.858 3.573 16.398-.71 24.876-1.494 2.958-9.24 8.487-4.786 9.62 4.693 1.194 11.293-.345 15.305-7.142 5.263-8.916 3.516-16.295.683-28.803-1.85-8.17-1.807-12.665-1.807-12.665s4.39 1.962 4.899 7.217c.843 8.687 2.914 15.865 8.927 19.105 8.652 4.662 14.926 1.901 17.66-2.104 1.894-2.777 2.134-8.775-.272-10.104-1.824-1.008-3.691 4.642-6.875 5.12-4.22.631-8.746-1.283-8.746-13.15 0-11.174-5.666-17.056-5.666-17.056s30.515-7.755 36.772-29.505c3.474-12.074 3.105-26.533-1.355-41.528-4.29-14.424-14.773-21.8-14.773-21.8s.577-14.52-8.636-27.186c-12.26-4.049-29.032 12.058-31.33 13.944-24.817-1.18-45.636 8.827-45.636 8.827S15.508 12.394 3.572 20.595z" id="a"/>
        <path d="M7 83.5C7 128.511 42.817 165 87 165s80-36.489 80-81.5S131.183 2 87 2 7 38.489 7 83.5z" id="c"/>
        <filter x="-4.1%" y="-4%" width="108.1%" height="108%" filterUnits="objectBoundingBox" id="d">
            <feOffset dx="4" dy="-13" in="SourceAlpha" result="shadowOffsetInner1"/>
            <feComposite in="shadowOffsetInner1" in2="SourceAlpha" operator="arithmetic" k2="-1" k3="1" result="shadowInnerInner1"/>
            <feColorMatrix values="0 0 0 0 0 0 0 0 0 0 0 0 0 0 0 0 0 0 0.169299139 0" in="shadowInnerInner1"/>
        </filter>
        <path d="M20.086 76.96c0 34.117 27.313 61.775 61.006 61.775s61.006-27.658 61.006-61.775c0-34.118-27.313-61.775-61.006-61.775S20.086 42.842 20.086 76.96z" id="e"/>
        <filter x="-4.1%" y="-4%" width="108.2%" height="108.1%" filterUnits="objectBoundingBox" id="f">
            <feOffset dx="-1" dy="-10" in="SourceAlpha" result="shadowOffsetInner1"/>
            <feComposite in="shadowOffsetInner1" in2="SourceAlpha" operator="arithmetic" k2="-1" k3="1" result="shadowInnerInner1"/>
            <feColorMatrix values="0 0 0 0 0 0 0 0 0 0 0 0 0 0 0 0 0 0 0.16553442 0" in="shadowInnerInner1"/>
        </filter>
    </defs>
    <g fill="none" fill-rule="evenodd">
        <path d="M312.63 44.816c-2.363.82-2.018.343-5.852.104-30.179-1.881-47.56 7.167-50.693 31.538-2.441 18.982-19.403 24.36-47.087 19.378-9.674-1.741-19.895-4.652-30.01-8.262a229.593 229.593 0 0 1-9.917-3.794c-1.04-.427-1.96-.815-2.75-1.156a72.8 72.8 0 0 1-.945-.414l-2.735-1.233-2.466 5.47 2.735 1.233c.49.217.742.327 1.032.452.823.356 1.777.758 2.851 1.199a235.564 235.564 0 0 0 10.178 3.894c10.402 3.712 20.927 6.71 30.964 8.516 13.525 2.434 25.149 2.516 34.264-.374 11.238-3.563 18.218-11.56 19.837-24.143 2.69-20.915 18.328-28.565 44.524-30.164 4.212-.257 5.961-1.131 6.07-2.244z" fill="#623A1F" fill-rule="nonzero"/>
        <g transform="rotate(-28 142.554 -109.05)">
            <mask id="b" fill="#fff">
                <use xlink:href="#a"/>
            </mask>
            <use fill="#D36E2D" xlink:href="#a"/>
            <path d="M37.318 127.79s-4.153-.871-5.242 1.163c5.155-.845-1.4 12.464 8.517 12.792.436-5.279-3.275-13.954-3.275-13.954zm19.999 13.588c-.308 3.58 0 5.762 0 5.762L52 151.474l-12.72 3.152-9.022-1.414-2.058-5.574s5.33 5.778 14.51 3.255c9.18-2.524 11.945-5.935 14.607-9.515zm12.264-7.265c-.43 5.497 0 11.248 0 11.248l.7 4.322.27 6.832-4.876 8.352-10.132 4.062-16.425-2.214 2.758-7.791s5.357 8.645 13.667 5.497c8.31-3.148 10.179-7.53 9.41-16.224-.769-8.694 1.096-12.841 4.628-14.084zm10.944-2.11c.64.342 1.426.901 1.426.901l3.403 19.748.566 12.079-6.559 7.174-11.153 6.437-13.029-3.858 3.342-5.14s.585 5.888 11.688 3.14c11.103-2.747 13.77-9.828 13-18.522-.768-8.694-4.09-14.295-2.684-21.959zm13.05.074c1.238 2.367 2.784 5.973 2.784 5.973l6.644 36.23-21.14 12.397-11.361-7.257 8.011-6.018s-3.536 9.76 6.504 4.667c10.041-5.093 12.11-10.783 11.342-19.477-.768-8.694-2.783-17.356-2.783-26.515zm5.557 15.385l7.907 29.832 31.766-19.835-10.987-20.403-7.02 9.1s4.798-2.085 4.275 4.588c-.524 6.672-7.53 8.452-13.67 7.7-7.395-.906-12.271-10.982-12.271-10.982zM115.884.965l25.496-2.92 11.426 115.86S124.869 126.33 113.4 149.38c-10.533-1.693 2.506-28.551-23.165-24.184-10.154 1.727-16.47 2.424-22.845 3.205-7.043.862-8.907 3.115-10.731 4.696-1.527-1.581-3.852-.768-3.852-.768s-29.09-6.521-37.695-12.816c11.037 0 6.77.961 18.394 0 6.702 3.711 21.6 6.832 49.471 1.167 27.87-5.665 44.478-11.34 47.869-27.14 5.238-24.409-10.973-35.48-10.973-35.48s-2.278-17.5-17.006-24.454c19.256-8.88 13.017-32.64 13.017-32.64zM.211 20.997l24.09-15.738 14.423 18.657s4.783 10.01-6.555 18.268C31.678 15.24.211 20.997.211 20.997zm85.018-10.06s-6.903 13.415 12.984 21.369C78.995 27.037 83.455 17.95 78.896 16.428c-5.517-1.843-11.237-3.366-11.898-5.491 9.12-3.705 18.23 0 18.23 0z" fill="#000" opacity=".224" mask="url(#b)"/>
            <g mask="url(#b)" fill-rule="nonzero" fill="#000" opacity=".327">
                <path d="M68.857 143.15c.277.367.8.878 1.578 1.381 1.698 1.097 3.826 1.598 6.362 1.178 1.924-.317 3.5-.947 4.757-1.802 1.157-.786 1.838-1.591 2.146-2.169l-1.336-.712a3.118 3.118 0 0 1-.337.46c-.333.394-.77.793-1.323 1.168-1.075.731-2.446 1.279-4.153 1.56-2.151.356-3.902-.056-5.295-.956a5.892 5.892 0 0 1-.924-.731 3.13 3.13 0 0 1-.27-.293l-1.205.916z"/>
                <path d="M56.703 146.665c.187.212.55.46 1.127.683 1.214.466 2.989.655 5.44.44 2.115-.186 3.825-.88 5.156-1.926.962-.756 1.542-1.525 1.813-2.072l-1.356-.673a3.288 3.288 0 0 1-.294.447 6.058 6.058 0 0 1-1.098 1.107c-1.103.867-2.535 1.449-4.354 1.608-2.236.196-3.784.031-4.765-.345-.353-.136-.512-.245-.536-.272l-1.133 1.003zM82.328 141.597c.277.366.8.877 1.578 1.38 1.698 1.097 3.826 1.598 6.362 1.179 1.924-.318 3.5-.948 4.757-1.802 1.157-.786 1.838-1.592 2.146-2.17l-1.336-.712a3.118 3.118 0 0 1-.337.46c-.333.394-.77.793-1.323 1.169-1.075.73-2.446 1.278-4.153 1.56-2.151.356-3.902-.057-5.295-.956a5.892 5.892 0 0 1-.924-.732 3.13 3.13 0 0 1-.27-.292l-1.205.916zM96.835 142.373c.278.367.8.878 1.579 1.381 1.697 1.097 3.825 1.598 6.362 1.179 1.923-.318 3.5-.948 4.757-1.802 1.156-.786 1.838-1.592 2.145-2.17l-1.335-.712a3.118 3.118 0 0 1-.338.46c-.333.394-.77.793-1.322 1.168-1.076.731-2.447 1.279-4.154 1.561-2.15.356-3.902-.057-5.295-.956a5.892 5.892 0 0 1-.923-.732 3.13 3.13 0 0 1-.271-.292l-1.205.915z"/>
                <path d="M97.094 145.48c.278.367.8.879 1.579 1.381 1.697 1.097 3.825 1.598 6.362 1.179 1.923-.318 3.5-.948 4.757-1.802 1.156-.786 1.838-1.592 2.145-2.17l-1.335-.712a3.118 3.118 0 0 1-.338.46c-.332.394-.77.793-1.322 1.169-1.076.73-2.447 1.278-4.154 1.56-2.15.356-3.902-.056-5.295-.956a5.892 5.892 0 0 1-.923-.732 3.13 3.13 0 0 1-.27-.292l-1.206.916zM126.248 156.89c.04-.096.088-.246.134-.444.358-1.537-.001-3.288-1.579-4.897a8.315 8.315 0 0 0-.885-.78c-2.118-1.622-4.09-1.86-5.698-1.247-.306.117-.53.24-.667.336l.87 1.24c.04-.028.154-.091.336-.16 1.13-.432 2.55-.26 4.24 1.034.27.208.511.42.724.637 1.183 1.208 1.433 2.427 1.186 3.494-.027.115-.05.187-.06.21l1.4.577zM81.8 171.461c-.09.142-.207.375-.319.69-.65 1.826-.32 3.964 1.623 6.08 2.03 2.212 4.147 2.748 5.945 2.28.218-.056.381-.116.485-.164l-.642-1.372c-.023.01-.1.039-.223.07-1.278.333-2.815-.056-4.451-1.839-1.543-1.68-1.781-3.227-1.311-4.547.072-.202.138-.335.17-.386l-1.277-.812z"/>
                <path d="M79.716 173.272a3.404 3.404 0 0 0-.305.658c-.617 1.736-.305 3.768 1.538 5.774 1.926 2.098 3.936 2.606 5.646 2.162.208-.054.364-.111.464-.158l-.642-1.372a1.483 1.483 0 0 1-.202.064c-1.19.31-2.62-.053-4.152-1.72-1.442-1.572-1.664-3.012-1.226-4.242.066-.187.128-.309.157-.355l-1.278-.811zM66.75 164.754c-.364.191-.864.573-1.354 1.182-1.138 1.412-1.608 3.353-1.058 5.82.402 1.804 1.149 3.15 2.148 4.086.979.916 1.977 1.285 2.693 1.347l.13-1.51a2.246 2.246 0 0 1-.504-.135 3.819 3.819 0 0 1-1.285-.808c-.772-.723-1.368-1.797-1.705-3.31-.449-2.013-.093-3.483.759-4.54.204-.253.422-.461.637-.625.122-.093.208-.147.241-.164l-.701-1.343z"/>
                <path d="M65.58 164.972c-.565.086-1.345.394-2.117 1.074-1.03.907-1.72 2.253-1.924 4.078-.235 2.093.229 3.699 1.166 4.841.477.583.968.927 1.332 1.089l.613-1.385c-.163-.072-.463-.283-.776-.664-.675-.824-1.021-2.022-.831-3.712.163-1.454.675-2.454 1.42-3.11.31-.273.64-.467.967-.597.187-.073.322-.108.376-.116l-.226-1.498zM52.71 156.25a3.41 3.41 0 0 0-.52-.165c-1.82-.445-3.89-.008-5.794 1.93-.236.24-.467.502-.691.785-1.91 2.41-2.213 4.665-1.533 6.51.123.335.252.58.352.727l1.253-.85a2.144 2.144 0 0 1-.186-.401c-.501-1.362-.273-3.06 1.3-5.045.19-.241.386-.462.583-.664 1.5-1.526 3.022-1.847 4.356-1.52.149.036.245.069.28.084l.6-1.39z"/>
                <path d="M51.563 155.748a3.683 3.683 0 0 0-.835-.543c-1.592-.784-3.553-.737-5.708.641-.53.34-.991.703-1.385 1.089-1.476 1.446-1.891 3.009-1.696 4.337.016.109.034.192.05.249l1.46-.394-.013-.076a2.834 2.834 0 0 1 .084-1.129c.172-.645.543-1.287 1.174-1.905.318-.311.697-.61 1.141-.895 1.692-1.082 3.092-1.115 4.225-.558.252.125.417.242.483.302l1.02-1.118zM37.02 135.548c-.131-.308-.415-.708-.902-1.09-1.083-.852-2.687-1.191-4.854-.786-1.543.288-2.758.806-3.678 1.494-.938.701-1.42 1.435-1.59 1.98l1.445.452c.01-.036.062-.147.17-.311.197-.302.485-.612.88-.908.73-.546 1.73-.971 3.051-1.218 1.755-.328 2.916-.083 3.642.487.269.212.406.406.444.494l1.392-.594z"/>
                <path d="M37.291 133.384c-.162-.372-.502-.878-1.069-1.375-1.175-1.03-2.821-1.52-4.948-1.2-1.724.261-3.01.904-3.902 1.821-.747.77-1.084 1.557-1.174 2.13l1.495.234a1.8 1.8 0 0 1 .12-.356 3.15 3.15 0 0 1 .644-.952c.656-.675 1.64-1.166 3.043-1.378 1.684-.255 2.884.103 3.726.84.224.198.405.408.544.615.078.116.122.198.135.227l1.386-.606zM129.433 155.097c.022-.073.048-.186.073-.336.228-1.396-.086-3.003-1.35-4.509-.536-.637-1.222-1.22-2.07-1.738-2.479-1.516-4.657-1.609-6.382-.815-.406.186-.695.38-.864.528l.994 1.142c.066-.058.236-.172.501-.294 1.276-.587 2.921-.516 4.963.732.71.434 1.271.91 1.7 1.42.95 1.131 1.177 2.296 1.014 3.289-.014.086-.026.139-.03.154l1.451.427zM68.758 146.593c.336.285.94.688 1.791 1.084 1.952.909 4.23 1.3 6.766.88 1.854-.306 3.36-.858 4.549-1.59 1.184-.73 1.857-1.488 2.145-2.04l-1.341-.701a2.417 2.417 0 0 1-.3.393 5.78 5.78 0 0 1-1.298 1.058c-1.018.628-2.338 1.111-4.001 1.386-2.216.366-4.191.028-5.881-.76a8.358 8.358 0 0 1-1.103-.614c-.18-.12-.298-.209-.348-.251l-.98 1.155z"/>
                <path d="M55.287 148.923c.336.285.94.688 1.791 1.084 1.952.91 4.23 1.3 6.766.881 1.854-.306 3.36-.858 4.549-1.59 1.184-.73 1.857-1.488 2.145-2.041l-1.341-.7a2.417 2.417 0 0 1-.3.392 5.78 5.78 0 0 1-1.298 1.058c-1.018.628-2.338 1.112-4.001 1.387-2.216.366-4.191.027-5.881-.76a8.358 8.358 0 0 1-1.103-.614c-.18-.12-.298-.21-.348-.252l-.98 1.155zM82.488 145.039c.336.285.94.688 1.792 1.084 1.951.91 4.23 1.3 6.766.881 1.854-.306 3.359-.858 4.548-1.59 1.184-.73 1.857-1.488 2.145-2.041l-1.341-.7a2.417 2.417 0 0 1-.3.392 5.78 5.78 0 0 1-1.297 1.058c-1.02.628-2.339 1.112-4.002 1.387-2.216.366-4.191.027-5.881-.76a8.358 8.358 0 0 1-1.103-.614c-.18-.12-.298-.21-.348-.252l-.98 1.155z"/>
            </g>
            <g mask="url(#b)" fill="#000" opacity=".332">
                <g transform="translate(31.778 132.531)">
                    <ellipse cx="10.19" cy="11.569" rx="1.813" ry="1.165"/>
                    <ellipse transform="rotate(38 5.008 10.275)" cx="5.008" cy="10.275" rx="1.813" ry="1.165"/>
                    <ellipse transform="rotate(72 1.974 6.224)" cx="1.974" cy="6.224" rx="1.813" ry="1.165"/>
                    <ellipse transform="rotate(-31 15.112 9.239)" cx="15.112" cy="9.239" rx="1.813" ry="1.165"/>
                    <ellipse transform="rotate(-43 18.998 5.873)" cx="18.998" cy="5.873" rx="1.813" ry="1.165"/>
                    <ellipse transform="rotate(-43 22.365 2.248)" cx="22.365" cy="2.248" rx="1.813" ry="1.165"/>
                </g>
            </g>
        </g>
        <g transform="rotate(-28 221.286 -160.63)">
            <ellipse fill="#FFF" transform="rotate(-11 85.872 36.572)" cx="85.872" cy="36.572" rx="10.263" ry="14.603"/>
            <ellipse fill="#000" transform="rotate(-11 85.872 36.572)" cx="85.872" cy="36.572" rx="6.626" ry="9.434"/>
            <ellipse fill="#FFF" transform="rotate(-11 31.829 44.068)" cx="31.829" cy="44.068" rx="10.263" ry="14.603"/>
            <ellipse fill="#000" transform="rotate(-11 31.829 43.81)" cx="31.829" cy="43.809" rx="6.626" ry="9.434"/>
            <ellipse fill="#000" cx="59.5" cy="52.726" rx="2.598" ry="2.585"/>
            <path d="M54.88 60.365a6.628 6.628 0 0 0 5.53 2.958 6.625 6.625 0 0 0 6.286-4.505.774.774 0 0 0-.493-.981.78.78 0 0 0-.986.49 5.067 5.067 0 0 1-4.808 3.445 5.067 5.067 0 0 1-4.229-2.263.782.782 0 0 0-1.08-.219.773.773 0 0 0-.22 1.075z" fill="#000" fill-rule="nonzero"/>
            <path d="M65.222 74.453C94.9 69.22 118.606 62.99 113.234 32.525c-3.16-17.923-29.78-28.211-59.456-22.978C24.1 14.78 2.605 33.55 5.766 51.475c4.92 27.907 29.78 28.211 59.456 22.978z" fill="#DDA032" opacity=".772"/>
            <path d="M99.184 23.207c10.68 10.447 7.471 27.17 1.309 33.195-8.484 8.293-17.118 12.402-46.78 16.837 8.301-16.837 31.475-46.585 45.471-50.032z" fill="#FFF" opacity=".155"/>
            <path d="M47.681 15.703c6.245-2.31 12.407-2.295 12.407-2.295S34.961 35.858 22.24 70.652c-3.259-1.034-5.98-4.495-5.98-4.495s5.443-22.942 31.421-50.454z" fill="#FFF" opacity=".542"/>
            <path d="M29.467 22.728c5.994-3.682 13.272-6.416 13.272-6.416S23.122 32.557 14.52 63.46c-1.804-2.6-2.552-6.121-2.552-6.121s6.303-22.23 17.5-34.611z" fill="#FFF" opacity=".542"/>
        </g>
        <g transform="translate(230 302)">
            <use fill="#D36E2D" xlink:href="#c"/>
            <use fill="#000" filter="url(#d)" xlink:href="#c"/>
            <path stroke-opacity=".08" stroke="#000" stroke-width="4" d="M9 83.5C9 127.415 43.93 163 87 163s78-35.585 78-79.5S130.07 4 87 4 9 39.585 9 83.5z"/>
        </g>
        <g fill-opacity=".121" fill="#000">
            <path d="M260.281 353.292c-1.863 5-.83 10.056 2.305 11.293 3.136 1.238 7.189-1.812 9.052-6.811 1.863-5 .83-10.056-2.305-11.294-3.137-1.237-7.189 1.812-9.052 6.812zm-.199 15.687c2.288 1.12 6.848 1.592 10.423-4.959-5.648 4.57-9.27 3.225-11.259 1.325-1.988-1.9-1.946-3.975-1.593-8.627-2.82 7.18.142 11.141 2.43 12.26zM358.713 381.19c-.08 10.857 5.76 19.81 13.046 20 7.285.188 13.256-8.46 13.335-19.317.08-10.856-5.76-19.81-13.046-19.998-7.285-.19-13.256 8.459-13.335 19.315zm11.216 30.141c5.474.553 15.085-1.711 17.492-16.723-8.083 12.664-16.437 12.607-21.882 10.354-5.444-2.252-6.897-6.25-9.625-15.394-.41 15.692 8.541 21.21 14.015 21.763zM322.698 439.847c-8.473 0-15.34-4.272-15.34-9.543 0-5.27 6.867-9.543 15.34-9.543 8.472 0 15.34 4.273 15.34 9.543s-6.868 9.543-15.34 9.543zm-1.174 5.969c-5.78 0-14.526-2.547-17.534-12.666 7.007 8.861 13.949 8.861 17.534 8.861 3.586 0 13.556 0 20.964-9.882-4.865 12.057-15.184 13.687-20.964 13.687zM311.018 335.626c8.631-4.264 13.356-11.69 10.553-16.588-2.803-4.898-12.073-5.412-20.704-1.148-8.632 4.264-13.356 11.69-10.553 16.588 2.803 4.898 12.072 5.412 20.704 1.148zm-11.426 9.978c8.179.289 16.84-6.062 22.187-14.153-7.776 8.024-17.419 10.053-22.228 10.013-4.81-.04-11.128-1.067-14.444-9.56 1.77 11.048 6.306 13.411 14.485 13.7z"/>
        </g>
        <g transform="rotate(-105 280.663 118.525)">
            <path d="M15.5 18c8.56 0 15.5-1.394 15.5-7.302C31 4.789 28.98 0 15.5 0S0 4.79 0 10.698 6.94 18 15.5 18z" fill="#D36E2D"/>
            <ellipse fill-opacity=".129" fill="#000" cx="15.253" cy="5.13" rx="11.327" ry="3"/>
        </g>
        <g transform="rotate(33 -336.46 737.534)">
            <path d="M19.302 22.873c10.66 0 19.302-1.753 19.302-9.18S36.089.245 19.302.245 0 6.266 0 13.693c0 7.427 8.642 9.18 19.302 9.18z" fill="#D36E2D"/>
            <ellipse fill-opacity=".129" fill="#000" cx="19.773" cy="7.322" rx="14.123" ry="3.842"/>
        </g>
        <g>
            <g transform="translate(12 552)">
                <use fill="#78AF9F" xlink:href="#e"/>
                <use fill="#000" filter="url(#f)" xlink:href="#e"/>
                <path stroke-opacity=".08" stroke="#000" stroke-width="2" d="M21.086 76.96c0 33.568 26.868 60.775 60.006 60.775 33.138 0 60.006-27.207 60.006-60.775S114.23 16.185 81.092 16.185c-33.138 0-60.006 27.207-60.006 60.775z"/>
            </g>
            <path d="M88.96 668.967c4.037.478 7.569-1.17 7.887-3.682.319-2.513-2.696-4.937-6.733-5.416-4.037-.478-7.569 1.17-7.887 3.682-.319 2.512 2.696 4.937 6.733 5.416zm-.92 2.778c2.754.327 7.77.133 10.817-5.34-4.127 4.293-8.878 3.73-10.587 3.527-1.708-.203-5.016-.595-7.82-5.215.822 4.994 4.836 6.702 7.59 7.028zM93.885 598.494c8.937-3.665 14.44-11.016 12.29-16.42-2.15-5.404-11.139-6.813-20.077-3.148-8.937 3.665-14.44 11.017-12.29 16.42 2.15 5.404 11.14 6.813 20.077 3.148zm-12.35 9.401c7.95 1.07 17.168-4.783 23.357-12.772-8.554 7.691-18.21 8.916-22.901 8.423-4.69-.493-10.737-2.164-12.957-11.39.405 11.763 4.55 14.669 12.5 15.739zM38.37 628.711c-.326 5.742 2.337 10.435 5.948 10.482 3.611.047 6.802-4.57 7.128-10.312.326-5.741-2.338-10.434-5.949-10.481-3.61-.047-6.802 4.57-7.127 10.311zm4.773 15.859c2.702.252 7.532-1.015 9.122-8.971-4.345 6.756-8.49 6.786-11.133 5.634-2.643-1.151-3.259-3.256-4.372-8.071-.617 8.301 3.68 11.155 6.383 11.408zM128.038 639.979c-.276 5.801 2.45 10.569 6.09 10.65 3.638.08 6.812-4.558 7.088-10.359.275-5.801-2.451-10.57-6.09-10.65-3.639-.08-6.812 4.557-7.088 10.359zm4.954 16.074c2.725.28 7.58-.957 9.11-8.985-4.317 6.79-8.493 6.782-11.167 5.594-2.673-1.188-3.313-3.32-4.478-8.199-.547 8.386 3.81 11.31 6.535 11.59z" fill-opacity=".121" fill="#000"/>
            <g transform="rotate(-57 571.389 268.46)">
                <path d="M9.382 11.355c5.182 0 9.383-.846 9.383-4.43 0-3.583-1.223-6.487-9.383-6.487C1.222.438 0 3.342 0 6.926c0 3.583 4.2 4.429 9.382 4.429z" fill="#78AF9F"/>
                <ellipse fill-opacity=".129" fill="#000" cx="9.611" cy="4.171" rx="6.865" ry="1.854"/>
            </g>
        </g>
        <g transform="translate(0 41)">
            <circle fill="#78AF9F" opacity=".536" cx="360.5" cy="69.5" r="3.5"/>
            <circle fill="#D36E2D" opacity=".811" cx="187.5" cy="515.5" r="2.5"/>
            <circle fill="#D36E2D" opacity=".811" cx="549.5" cy="155.5" r="2.5"/>
            <circle fill="#D36E2D" opacity=".398" cx="412" cy="446" r="4"/>
            <circle fill="#78AF9F" opacity=".55" cx="226" cy="216" r="3"/>
            <circle fill="#D36E2D" opacity=".55" cx="3" cy="3" r="3"/>
        </g>
    </g>
</svg>
