<?xml version="1.0" encoding="UTF-8" standalone="no"?>
<svg width="90px" height="90px" viewBox="0 0 90 90" version="1.1" xmlns="http://www.w3.org/2000/svg" xmlns:xlink="http://www.w3.org/1999/xlink">
    <defs></defs>
    <g stroke="none" stroke-width="1" fill="none" fill-rule="evenodd">
        <g transform="translate(1.000000, 1.000000)">
            <ellipse stroke="#C98C81" stroke-width="2" opacity="0.22603778" cx="44" cy="44" rx="44" ry="44"></ellipse>
            <path d="M11,44 C11,62.2244016 25.774562,76.9981234 44,76.9981234 C62.225438,76.9981234 77,62.2244016 77,44 C77,25.7755984 62.225438,11.0018766 44,11.0018766 C25.774562,11.0018766 11,25.7755984 11,44 Z" fill="#E34B30"></path>
            <path d="M73,69 C73,73.418288 76.581712,77 81,77 C85.418288,77 89,73.418288 89,69 C89,64.581712 85.418288,61 81,61 C76.581712,61 73,64.581712 73,69 Z" fill="#79A69F"></path>
            <path d="M31.8419811,50.656 C31.8419811,51.472 32.5139811,52.12 33.3059811,52.12 C34.1219811,52.12 34.7699811,51.472 34.7699811,50.656 L34.7699811,36.448 C34.7699811,35.632 34.1459811,34.984 33.3059811,34.984 L33.2579811,34.984 C32.8259811,34.984 32.3939811,35.08 31.8179811,35.248 L29.2739811,36.064 C28.6739811,36.232 28.2899811,36.712 28.2899811,37.336 C28.2899811,38.008 28.8899811,38.584 29.5859811,38.584 C29.7299811,38.584 29.9459811,38.56 30.1139811,38.512 L31.8419811,37.984 L31.8419811,50.656 Z M38.6099811,50.224 L38.6099811,50.464 C38.6099811,51.4 39.3299811,52.12 40.3139811,52.12 C41.2739811,52.12 41.9939811,51.4 41.9939811,50.464 L41.9939811,50.224 C41.9939811,49.288 41.2739811,48.568 40.3139811,48.568 C39.3299811,48.568 38.6099811,49.288 38.6099811,50.224 L38.6099811,50.224 Z M51.7139811,52.288 C56.1299811,52.288 59.0579811,48.4 59.0579811,43.6 L59.0579811,43.552 C59.0579811,38.752 56.1539811,34.912 51.7619811,34.912 C47.3459811,34.912 44.4179811,38.8 44.4179811,43.6 L44.4179811,43.648 C44.4179811,48.448 47.2979811,52.288 51.7139811,52.288 L51.7139811,52.288 Z M51.7619811,49.624 C49.1459811,49.624 47.4659811,46.912 47.4659811,43.6 L47.4659811,43.552 C47.4659811,40.216 49.1219811,37.576 51.7139811,37.576 C54.3059811,37.576 56.0099811,40.288 56.0099811,43.6 L56.0099811,43.648 C56.0099811,46.936 54.3779811,49.624 51.7619811,49.624 L51.7619811,49.624 Z" fill="#EFEAE2"></path>
        </g>
    </g>
</svg>
