<?xml version="1.0" encoding="UTF-8"?>
<svg width="248px" height="180px" viewBox="0 0 248 180" version="1.1" xmlns="http://www.w3.org/2000/svg" xmlns:xlink="http://www.w3.org/1999/xlink">
    <!-- Generator: Sketch 46.2 (44496) - http://www.bohemiancoding.com/sketch -->
    <title>real-time-privacy-1</title>
    <desc>Created with Sketch.</desc>
    <defs></defs>
    <g id="Mini-site" stroke="none" stroke-width="1" fill="none" fill-rule="evenodd">
        <g id="Privacy">
            <g id="real-time-privacy-1">
                <g id="Members" transform="translate(48.000000, 140.000000)">
                    <path d="M30,10 L2,10 C0.900000034,10 0,10.9000001 0,12 L0,30 C0,31.1000002 0.900000034,32 2,32 L12.6800003,32 C12.1800003,33.2199992 10.96,34.7800006 8,36 L24,36 C21.0400008,34.7800006 19.8199997,33.2199992 19.3199997,32 L30,32 C31.1000002,32 32,31.1000002 32,30 L32,12 C32,10.9000001 31.1000002,10 30,10 Z M30,28 L2,28 L2,12 L30,12 L30,28 Z" id="Shape" fill="#DDA032"></path>
                    <path d="M89,0 L61,0 C59.9,0 59,0.90000008 59,2 L59,20 C59,21.1000002 59.9,22 61,22 L71.6800003,22 C71.1800003,23.2199992 69.96,24.7800006 67,26 L83,26 C80.0400008,24.7800006 78.8199997,23.2199992 78.3199997,22 L89,22 C90.1000002,22 91,21.1000002 91,20 L91,2 C91,0.90000008 90.1000002,0 89,0 Z M89,18 L61,18 L61,2 L89,2 L89,18 Z" id="Shape" fill="#78AF9F"></path>
                    <path d="M150,14 L122,14 C120.9,14 120,14.9000001 120,16 L120,34 C120,35.1000002 120.9,36 122,36 L132.68,36 C132.18,37.2199992 130.96,38.7800006 128,40 L144,40 C141.040001,38.7800006 139.82,37.2199992 139.32,36 L150,36 C151.1,36 152,35.1000002 152,34 L152,16 C152,14.9000001 151.1,14 150,14 Z M150,32 L122,32 L122,16 L150,16 L150,32 Z" id="Shape" fill="#659CC8"></path>
                </g>
                <g id="Lines" transform="translate(64.000000, 86.000000)" stroke-width="2">
                    <path d="M60,0 L60,50" id="Line" stroke="#78AF9F"></path>
                    <path d="M66,0 L66,26 L66,26 C66,28.209139 67.790861,30 70,30 L116,30 L116,30 C118.209139,30 120,31.790861 120,34 L120,64" id="Line" stroke="#659CC8" stroke-linejoin="round"></path>
                    <path d="M1.59367022e-14,0 L-3.55271368e-15,26 L-7.10542736e-15,26 C-8.79699544e-15,28.209139 1.790861,30 4,30 L50,30 L50,30 C52.209139,30 54,31.790861 54,34 L54,60" id="Line" stroke="#DDA032" stroke-linejoin="round" transform="translate(27.000000, 30.000000) scale(-1, 1) translate(-27.000000, -30.000000) "></path>
                </g>
                <g id="Server" transform="translate(64.000000, 20.000000)">
                    <path d="M75,50 L45,50 C43.3500001,50 42,51.3499994 42,53 L42,59 C42,60.6500006 43.3500001,62 45,62 L75,62 C76.6500003,62 78,60.6500006 78,59 L78,53 C78,51.3499994 76.6500003,50 75,50 Z M48,59 L45,59 L45,53 L48,53 L48,59 Z M54,59 L51,59 L51,53 L54,53 L54,59 Z M60,59 L57,59 L57,53 L60,53 L60,59 Z M66,59 L63,59 L63,53 L66,53 L66,59 Z M75,36 L45,36 C43.3500001,36 42,37.3500001 42,39 L42,45 C42,46.6500006 43.3500001,48 45,48 L75,48 C76.6500003,48 78,46.6500006 78,45 L78,39 C78,37.3500001 76.6500003,36 75,36 Z M48,45 L45,45 L45,39 L48,39 L48,45 Z M54,45 L51,45 L51,39 L54,39 L54,45 Z M60,45 L57,45 L57,39 L60,39 L60,45 Z M66,45 L63,45 L63,39 L66,39 L66,45 Z M75,42 L72,42 L72,39 L75,39 L75,42 Z" id="Shape" fill="#5D5B5C"></path>
                    <g id="Lights" transform="translate(45.000000, 39.000000)" fill="#7ED321">
                        <rect id="Rectangle-4" x="27" y="0" width="3" height="3"></rect>
                    </g>
                    <g id="Hi" transform="translate(84.000000, 14.000000)">
                        <path d="M9,0 L29,0 C30.1045695,-2.02906125e-16 31,0.8954305 31,2 L31,18 C31,19.1045695 30.1045695,20 29,20 L9,20 C7.8954305,20 7,19.1045695 7,18 L7,2 L7,2 C7,0.8954305 7.8954305,2.02906125e-16 9,0 Z M7,6 L7,14 L1.41421356,14 C0.861928813,14 0.414213562,13.5522847 0.414213562,13 C0.414213562,12.7347835 0.519570403,12.4804296 0.707106781,12.2928932 L7,6 Z" id="Rectangle-2" fill="#659CC8"></path>
                        <path d="M13.304,14 L14.78,14 L14.78,10.46 L18.788,10.46 L18.788,14 L20.264,14 L20.264,5.6 L18.788,5.6 L18.788,9.092 L14.78,9.092 L14.78,5.6 L13.304,5.6 L13.304,14 Z M22.28,6.692 L23.84,6.692 L23.84,5.312 L22.28,5.312 L22.28,6.692 Z M22.34,14 L23.792,14 L23.792,7.664 L22.34,7.664 L22.34,14 Z" fill="#343233"></path>
                    </g>
                    <g id="Hi" transform="translate(0.000000, 35.000000)">
                        <path d="M2,0 L22,0 C23.1045695,-2.02906125e-16 24,0.8954305 24,2 L24,18 C24,19.1045695 23.1045695,20 22,20 L2,20 C0.8954305,20 -1.4075584e-14,19.1045695 -1.42108547e-14,18 L-1.42108547e-14,2 L-1.42108547e-14,2 C-1.43461255e-14,0.8954305 0.8954305,2.02906125e-16 2,0 L2,0 Z M24,14 L24,6 L29.5857864,6 C30.1380712,6 30.5857864,6.44771525 30.5857864,7 C30.5857864,7.26521649 30.4804296,7.5195704 30.2928932,7.70710678 L24,14 Z" id="Rectangle-2" fill="#DDA032"></path>
                        <path d="M6.304,14 L7.78,14 L7.78,10.46 L11.788,10.46 L11.788,14 L13.264,14 L13.264,5.6 L11.788,5.6 L11.788,9.092 L7.78,9.092 L7.78,5.6 L6.304,5.6 L6.304,14 Z M15.28,6.692 L16.84,6.692 L16.84,5.312 L15.28,5.312 L15.28,6.692 Z M15.34,14 L16.792,14 L16.792,7.664 L15.34,7.664 L15.34,14 Z" fill="#343233"></path>
                    </g>
                    <g id="Hi" transform="translate(38.000000, 0.000000)">
                        <path d="M2,0 L22,0 C23.1045695,-2.02906125e-16 24,0.8954305 24,2 L24,18 C24,19.1045695 23.1045695,20 22,20 L2,20 C0.8954305,20 -1.4075584e-14,19.1045695 -1.42108547e-14,18 L-1.42108547e-14,2 L-1.42108547e-14,2 C-1.43461255e-14,0.8954305 0.8954305,2.02906125e-16 2,0 L2,0 Z M9,20 L17,20 L17,25.5857864 C17,26.1380712 16.5522847,26.5857864 16,26.5857864 C15.7347835,26.5857864 15.4804296,26.4804296 15.2928932,26.2928932 L9,20 Z" id="Rectangle-2" fill="#78AF9F"></path>
                        <path d="M6.304,14 L7.78,14 L7.78,10.46 L11.788,10.46 L11.788,14 L13.264,14 L13.264,5.6 L11.788,5.6 L11.788,9.092 L7.78,9.092 L7.78,5.6 L6.304,5.6 L6.304,14 Z M15.28,6.692 L16.84,6.692 L16.84,5.312 L15.28,5.312 L15.28,6.692 Z M15.34,14 L16.792,14 L16.792,7.664 L15.34,7.664 L15.34,14 Z" fill="#343233"></path>
                    </g>
                </g>
                <g id="Nr">
                    <circle id="Oval" stroke="#EED9B7" stroke-width="2" opacity="0.146116395" cx="20" cy="20" r="19"></circle>
                    <polygon id="1" fill="#EED9B7" points="20.5 27 22.06 27 22.06 12.9 20.9 12.9 17.48 14.08 17.86 15.36 20.5 14.54"></polygon>
                </g>
            </g>
        </g>
    </g>
</svg>