<?xml version="1.0" encoding="UTF-8"?>
<svg width="504px" height="290px" viewBox="0 0 504 290" version="1.1" xmlns="http://www.w3.org/2000/svg" xmlns:xlink="http://www.w3.org/1999/xlink">
    <!-- Generator: Sketch 46.2 (44496) - http://www.bohemiancoding.com/sketch -->
    <title>real-time-portals</title>
    <desc>Created with Sketch.</desc>
    <defs>
        <rect id="path-1" x="0" y="0" width="212" height="124" rx="5"></rect>
        <path d="M112,18 L212,18 L212,119 C212,121.761424 209.761424,124 207,124 L52,124 L52,19 L52,0 L112,0 L112,18 Z" id="path-2"></path>
        <rect id="path-3" x="0" y="0" width="212" height="124" rx="5"></rect>
        <path d="M112,18 L212,18 L212,119 C212,121.761424 209.761424,124 207,124 L52,124 L52,19 L52,0 L112,0 L112,18 Z" id="path-4"></path>
        <rect id="path-5" x="0" y="0" width="212" height="124" rx="5"></rect>
        <path d="M112,18 L212,18 L212,119 C212,121.761424 209.761424,124 207,124 L52,124 L52,19 L52,0 L112,0 L112,18 Z" id="path-6"></path>
    </defs>
    <g id="Mini-site" stroke="none" stroke-width="1" fill="none" fill-rule="evenodd">
        <g id="Portals">
            <g id="real-time-portals">
                <g id="Connections" transform="translate(123.000000, 124.000000)" stroke-width="2">
                    <path d="M132,104 L252,104 L252,104 C255.313708,104 258,101.313708 258,98 L258,64" id="Line" stroke="#659CC8" transform="translate(195.000000, 84.000000) scale(-1, 1) translate(-195.000000, -84.000000) "></path>
                    <path d="M2.84217094e-14,104 L120,104 L120,104 C123.313708,104 126,101.313708 126,98 L126,64" id="Line" stroke="#DDA032"></path>
                    <path d="M126,30 L126,0" id="Line" stroke="#78AF9F"></path>
                    <path d="M132,30 L132,0" id="Line" stroke="#78AF9F"></path>
                    <path d="M126,48 L126,62" id="Line" stroke="#DDA032" stroke-dasharray="2"></path>
                    <path d="M132,48 L132,62" id="Line" stroke="#659CC8" stroke-dasharray="2"></path>
                    <path d="M126,32 L126,46" id="Line" stroke="#78AF9F" stroke-dasharray="2"></path>
                    <path d="M132,32 L132,46" id="Line" stroke="#78AF9F" stroke-dasharray="2"></path>
                </g>
                <g id="Connections" transform="translate(327.000000, 177.000000) scale(-1, 1) translate(-327.000000, -177.000000) translate(264.000000, 126.000000)"></g>
                <g id="Guest" transform="translate(292.000000, 166.000000)">
                    <g id="Frame">
                        <use fill="#343233" fill-rule="evenodd" xlink:href="#path-1"></use>
                        <rect stroke="#4D4B4C" stroke-width="2" x="1" y="1" width="210" height="122" rx="5"></rect>
                    </g>
                    <g id="Buffer">
                        <use fill="#3D3B3C" fill-rule="evenodd" xlink:href="#path-2"></use>
                        <path stroke="#4D4B4C" stroke-width="2" d="M111,1 L53,1 L53,123 L207,123 C209.209139,123 211,121.209139 211,119 L211,19 L111,19 L111,1 Z"></path>
                    </g>
                    <g id="Code" transform="translate(64.000000, 38.000000)">
                        <path d="M0,30 L30,30 L30,34 L0,34 L0,30 Z M34,28 L36,28 L36,36 L34,36 L34,28 Z" id="Line" fill="#78AF9F"></path>
                        <path d="M0,50 L80,50 L80,54 L0,54 L0,50 Z M0,60 L100,60 L100,64 L0,64 L0,60 Z M0,70 L50,70 L50,74 L0,74 L0,70 Z M104,58 L106,58 L106,66 L104,66 L104,58 Z" id="User" fill="#659CC8"></path>
                        <path d="M0,0 L70,0 L70,4 L0,4 L0,0 Z M0,10 L50,10 L50,14 L0,14 L0,10 Z M54,8 L56,8 L56,16 L54,16 L54,8 Z" id="User" fill="#DDA032"></path>
                    </g>
                    <g id="Tree-View" transform="translate(11.000000, 12.000000)">
                        <path d="M0,66 L14,66 L14,70 L0,70 L0,66 Z M0,56 L28,56 L28,60 L0,60 L0,56 Z M0,46 L30,46 L30,50 L0,50 L0,46 Z M0,36 L18,36 L18,40 L0,40 L0,36 Z M0,26 L28,26 L28,30 L0,30 L0,26 Z" id="list" fill="#5D5B5C"></path>
                        <path d="M7.04882812,6.49804688 L5.86523437,6.49804688 C5.79882779,6.00195064 5.59472827,5.62207163 5.25292969,5.35839844 C4.9111311,5.09472524 4.4980493,4.96289062 4.01367188,4.96289062 C3.4082001,4.96289062 2.91699407,5.17089636 2.54003906,5.58691406 C2.16308405,6.00293177 1.97460938,6.62694896 1.97460938,7.45898438 L1.97460938,8.50195312 C1.97460938,9.29492584 2.1455061,9.91698993 2.48730469,10.3681641 C2.82910327,10.8193382 3.33398104,11.0449219 4.00195312,11.0449219 C4.56054967,11.0449219 5.01757635,10.8935562 5.37304687,10.5908203 C5.7285174,10.2880844 5.90625,9.9042992 5.90625,9.43945312 L5.90625,8.79492188 L3.97851562,8.79492188 L3.97851562,7.76367188 L7.07226562,7.76367188 L7.07226562,9.38671875 C7.07226562,9.62890746 7.04101594,9.87206909 6.97851562,10.1162109 C6.91601531,10.3603528 6.80761796,10.6074206 6.65332031,10.8574219 C6.49902267,11.1074231 6.30859488,11.328124 6.08203125,11.5195312 C5.85546762,11.7109385 5.5625018,11.8662103 5.203125,11.9853516 C4.8437482,12.1044928 4.44336158,12.1640625 4.00195312,12.1640625 C3.29101207,12.1640625 2.68945559,12.0087906 2.19726562,11.6982422 C1.70507566,11.3876938 1.3427746,10.9628933 1.11035156,10.4238281 C0.877928525,9.88476293 0.76171875,9.24609744 0.76171875,8.5078125 L0.76171875,7.44726562 C0.76171875,6.33007254 1.05663768,5.45019853 1.64648438,4.80761719 C2.23633107,4.16503585 3.03319811,3.84375 4.03710938,3.84375 C4.50195545,3.84375 4.92382623,3.91699146 5.30273438,4.06347656 C5.68164252,4.20996167 5.99316284,4.40722532 6.23730469,4.65527344 C6.48144653,4.90332155 6.67285087,5.18456874 6.81152344,5.49902344 C6.95019601,5.81347813 7.02929678,6.14648262 7.04882812,6.49804688 Z M14.0214844,5.8125 L14.0214844,12 L12.8554688,12 L12.8554688,10.96875 L12.7910156,10.96875 C12.6894526,11.2656265 12.4824234,11.5283192 12.1699219,11.7568359 C11.8574203,11.9853527 11.4550806,12.0996094 10.9628906,12.0996094 C10.3105436,12.0996094 9.79687687,11.9335954 9.421875,11.6015625 C9.04687313,11.2695296 8.859375,10.7558629 8.859375,10.0605469 L8.859375,5.8125 L10.0429688,5.8125 L10.0429688,9.7265625 C10.0429688,10.1875023 10.1611316,10.5175771 10.3974609,10.7167969 C10.6337902,10.9160166 10.9453106,11.015625 11.3320312,11.015625 C11.7578146,11.015625 12.1162095,10.8828138 12.4072266,10.6171875 C12.6982436,10.3515612 12.84375,10.0234395 12.84375,9.6328125 L12.84375,5.8125 L14.0214844,5.8125 Z M18.4394531,12.1054688 C17.5996052,12.1054688 16.9414086,11.8593775 16.4648438,11.3671875 C15.9882789,10.8749975 15.75,10.1953168 15.75,9.328125 L15.75,8.47851562 C15.75,7.6230426 15.9931616,6.94726811 16.4794922,6.45117188 C16.9658227,5.95507564 17.591793,5.70703125 18.3574219,5.70703125 C19.126957,5.70703125 19.7539038,5.95898186 20.2382812,6.46289062 C20.7226587,6.96679939 20.9648438,7.63866768 20.9648438,8.47851562 L20.9648438,9.2109375 L16.921875,9.2109375 L16.921875,9.515625 C16.921875,9.9765648 17.0546862,10.3525376 17.3203125,10.6435547 C17.5859388,10.9345718 17.9550758,11.0800781 18.4277344,11.0800781 C18.7675798,11.0800781 19.0527332,11.0117194 19.2832031,10.875 C19.513673,10.7382806 19.6542966,10.5703135 19.7050781,10.3710938 L20.8886719,10.3710938 C20.8691405,10.519532 20.8251957,10.6708977 20.7568359,10.8251953 C20.6884762,10.979493 20.5869147,11.1337883 20.4521484,11.2880859 C20.3173821,11.4423836 20.158204,11.579101 19.9746094,11.6982422 C19.7910147,11.8173834 19.5664076,11.9150387 19.3007812,11.9912109 C19.0351549,12.0673832 18.7480484,12.1054688 18.4394531,12.1054688 Z M16.921875,8.37304688 L19.7988281,8.37304688 L19.7988281,8.28515625 C19.7988281,7.81249764 19.6679701,7.43261862 19.40625,7.14550781 C19.1445299,6.858397 18.7968772,6.71484375 18.3632812,6.71484375 C17.9296853,6.71484375 17.581056,6.858397 17.3173828,7.14550781 C17.0537096,7.43261862 16.921875,7.81249764 16.921875,8.28515625 L16.921875,8.37304688 Z M22.3828125,7.60546875 C22.3828125,7.28124838 22.4462884,6.99511843 22.5732422,6.74707031 C22.7001959,6.4990222 22.8749989,6.30078199 23.0976562,6.15234375 C23.3203136,6.00390551 23.5693346,5.8925785 23.8447266,5.81835938 C24.1201186,5.74414025 24.416014,5.70703125 24.7324219,5.70703125 C25.4082065,5.70703125 25.9521464,5.8671859 26.3642578,6.1875 C26.7763692,6.5078141 26.9824219,6.9374973 26.9824219,7.4765625 L25.9042969,7.4765625 C25.8808593,7.24999887 25.765626,7.05468832 25.5585937,6.890625 C25.3515615,6.72656168 25.064455,6.64453125 24.6972656,6.64453125 C24.3457014,6.64453125 24.0615245,6.71972581 23.8447266,6.87011719 C23.6279286,7.02050856 23.5195312,7.2285143 23.5195312,7.49414062 C23.5195312,7.64648514 23.5556637,7.7753901 23.6279297,7.88085938 C23.7001957,7.98632865 23.8193351,8.07128874 23.9853516,8.13574219 C24.151368,8.20019563 24.289062,8.24609361 24.3984375,8.2734375 C24.507813,8.30078139 24.6777332,8.33398418 24.9082031,8.37304688 C24.9824222,8.38476568 25.0371092,8.39453121 25.0722656,8.40234375 C25.3886735,8.45703152 25.6601551,8.521484 25.8867187,8.59570312 C26.1132824,8.66992225 26.328124,8.77148373 26.53125,8.90039062 C26.734376,9.02929752 26.8876948,9.19726459 26.9912109,9.40429688 C27.0947271,9.61132916 27.1464844,9.85546734 27.1464844,10.1367188 C27.1464844,10.7539093 26.9199241,11.2363264 26.4667969,11.5839844 C26.0136696,11.9316424 25.4023476,12.1054688 24.6328125,12.1054688 C23.9140589,12.1054688 23.3398459,11.9482438 22.9101562,11.6337891 C22.4804666,11.3193344 22.265625,10.8886746 22.265625,10.3417969 L23.4199219,10.3417969 C23.5019535,10.8964871 23.9257774,11.1738281 24.6914062,11.1738281 C25.1289084,11.1738281 25.4550771,11.0917977 25.6699219,10.9277344 C25.8847667,10.7636711 25.9921875,10.5488295 25.9921875,10.2832031 C25.9921875,10.1347649 25.9570316,10.0087896 25.8867187,9.90527344 C25.8164059,9.80175729 25.7089851,9.71875031 25.5644531,9.65625 C25.4199212,9.59374969 25.2714851,9.54296895 25.1191406,9.50390625 C24.9667961,9.46484355 24.7773449,9.42382834 24.5507812,9.38085938 L24.4453125,9.36328125 C24.1874987,9.31249975 23.9687509,9.261719 23.7890625,9.2109375 C23.6093741,9.160156 23.4238291,9.08886765 23.2324219,8.99707031 C23.0410147,8.90527298 22.8886724,8.80078184 22.7753906,8.68359375 C22.6621088,8.56640566 22.5683597,8.4169931 22.4941406,8.23535156 C22.4199215,8.05371003 22.3828125,7.84375119 22.3828125,7.60546875 Z M29.1738281,5.84765625 L29.1738281,4.30078125 L30.3398437,4.30078125 L30.3398437,5.84765625 L31.7285156,5.84765625 L31.7285156,6.84960938 L30.3398437,6.84960938 L30.3398437,10.1660156 C30.3398437,10.5019548 30.409179,10.7304681 30.5478516,10.8515625 C30.6865241,10.9726569 30.9394513,11.0332031 31.3066406,11.0332031 C31.5058604,11.0332031 31.6718743,11.0253907 31.8046875,11.0097656 L31.8046875,11.9882812 C31.6484367,12.0273439 31.3847675,12.046875 31.0136719,12.046875 C30.6425763,12.046875 30.3369153,12.0136722 30.0966797,11.9472656 C29.8564441,11.880859 29.6669929,11.7705086 29.5283203,11.6162109 C29.3896477,11.4619133 29.2939456,11.2783214 29.2412109,11.0654297 C29.1884763,10.852538 29.1621094,10.583986 29.1621094,10.2597656 L29.1621094,6.84960938 L28.21875,6.84960938 L28.21875,5.84765625 L29.1738281,5.84765625 Z" id="Guest" fill="#EED9B7"></path>
                    </g>
                    <g id="Tab" transform="translate(62.000000, 5.000000)" fill="#5D5B5C">
                        <rect id="Path" x="0" y="5" width="40" height="4"></rect>
                    </g>
                </g>
                <g id="Guest" transform="translate(0.000000, 166.000000)">
                    <g id="Frame">
                        <use fill="#343233" fill-rule="evenodd" xlink:href="#path-3"></use>
                        <rect stroke="#4D4B4C" stroke-width="2" x="1" y="1" width="210" height="122" rx="5"></rect>
                    </g>
                    <g id="Buffer">
                        <use fill="#3D3B3C" fill-rule="evenodd" xlink:href="#path-4"></use>
                        <path stroke="#4D4B4C" stroke-width="2" d="M111,1 L53,1 L53,123 L207,123 C209.209139,123 211,121.209139 211,119 L211,19 L111,19 L111,1 Z"></path>
                    </g>
                    <g id="Code" transform="translate(64.000000, 38.000000)">
                        <path d="M0,30 L30,30 L30,34 L0,34 L0,30 Z M34,28 L36,28 L36,36 L34,36 L34,28 Z" id="Line" fill="#78AF9F"></path>
                        <path d="M0,50 L80,50 L80,54 L0,54 L0,50 Z M0,60 L100,60 L100,64 L0,64 L0,60 Z M0,70 L50,70 L50,74 L0,74 L0,70 Z M104,58 L106,58 L106,66 L104,66 L104,58 Z" id="User" fill="#659CC8"></path>
                        <path d="M0,0 L70,0 L70,4 L0,4 L0,0 Z M0,10 L50,10 L50,14 L0,14 L0,10 Z M54,8 L56,8 L56,16 L54,16 L54,8 Z" id="User" fill="#DDA032"></path>
                    </g>
                    <g id="Tree-View" transform="translate(11.000000, 12.000000)">
                        <path d="M0,66 L14,66 L14,70 L0,70 L0,66 Z M0,56 L28,56 L28,60 L0,60 L0,56 Z M0,46 L30,46 L30,50 L0,50 L0,46 Z M0,36 L18,36 L18,40 L0,40 L0,36 Z M0,26 L28,26 L28,30 L0,30 L0,26 Z" id="list" fill="#5D5B5C"></path>
                        <path d="M7.04882812,6.49804688 L5.86523437,6.49804688 C5.79882779,6.00195064 5.59472827,5.62207163 5.25292969,5.35839844 C4.9111311,5.09472524 4.4980493,4.96289062 4.01367188,4.96289062 C3.4082001,4.96289062 2.91699407,5.17089636 2.54003906,5.58691406 C2.16308405,6.00293177 1.97460938,6.62694896 1.97460938,7.45898438 L1.97460938,8.50195312 C1.97460938,9.29492584 2.1455061,9.91698993 2.48730469,10.3681641 C2.82910327,10.8193382 3.33398104,11.0449219 4.00195312,11.0449219 C4.56054967,11.0449219 5.01757635,10.8935562 5.37304687,10.5908203 C5.7285174,10.2880844 5.90625,9.9042992 5.90625,9.43945312 L5.90625,8.79492188 L3.97851562,8.79492188 L3.97851562,7.76367188 L7.07226562,7.76367188 L7.07226562,9.38671875 C7.07226562,9.62890746 7.04101594,9.87206909 6.97851562,10.1162109 C6.91601531,10.3603528 6.80761796,10.6074206 6.65332031,10.8574219 C6.49902267,11.1074231 6.30859488,11.328124 6.08203125,11.5195312 C5.85546762,11.7109385 5.5625018,11.8662103 5.203125,11.9853516 C4.8437482,12.1044928 4.44336158,12.1640625 4.00195312,12.1640625 C3.29101207,12.1640625 2.68945559,12.0087906 2.19726562,11.6982422 C1.70507566,11.3876938 1.3427746,10.9628933 1.11035156,10.4238281 C0.877928525,9.88476293 0.76171875,9.24609744 0.76171875,8.5078125 L0.76171875,7.44726562 C0.76171875,6.33007254 1.05663768,5.45019853 1.64648438,4.80761719 C2.23633107,4.16503585 3.03319811,3.84375 4.03710938,3.84375 C4.50195545,3.84375 4.92382623,3.91699146 5.30273438,4.06347656 C5.68164252,4.20996167 5.99316284,4.40722532 6.23730469,4.65527344 C6.48144653,4.90332155 6.67285087,5.18456874 6.81152344,5.49902344 C6.95019601,5.81347813 7.02929678,6.14648262 7.04882812,6.49804688 Z M14.0214844,5.8125 L14.0214844,12 L12.8554688,12 L12.8554688,10.96875 L12.7910156,10.96875 C12.6894526,11.2656265 12.4824234,11.5283192 12.1699219,11.7568359 C11.8574203,11.9853527 11.4550806,12.0996094 10.9628906,12.0996094 C10.3105436,12.0996094 9.79687687,11.9335954 9.421875,11.6015625 C9.04687313,11.2695296 8.859375,10.7558629 8.859375,10.0605469 L8.859375,5.8125 L10.0429688,5.8125 L10.0429688,9.7265625 C10.0429688,10.1875023 10.1611316,10.5175771 10.3974609,10.7167969 C10.6337902,10.9160166 10.9453106,11.015625 11.3320312,11.015625 C11.7578146,11.015625 12.1162095,10.8828138 12.4072266,10.6171875 C12.6982436,10.3515612 12.84375,10.0234395 12.84375,9.6328125 L12.84375,5.8125 L14.0214844,5.8125 Z M18.4394531,12.1054688 C17.5996052,12.1054688 16.9414086,11.8593775 16.4648438,11.3671875 C15.9882789,10.8749975 15.75,10.1953168 15.75,9.328125 L15.75,8.47851562 C15.75,7.6230426 15.9931616,6.94726811 16.4794922,6.45117188 C16.9658227,5.95507564 17.591793,5.70703125 18.3574219,5.70703125 C19.126957,5.70703125 19.7539038,5.95898186 20.2382812,6.46289062 C20.7226587,6.96679939 20.9648438,7.63866768 20.9648438,8.47851562 L20.9648438,9.2109375 L16.921875,9.2109375 L16.921875,9.515625 C16.921875,9.9765648 17.0546862,10.3525376 17.3203125,10.6435547 C17.5859388,10.9345718 17.9550758,11.0800781 18.4277344,11.0800781 C18.7675798,11.0800781 19.0527332,11.0117194 19.2832031,10.875 C19.513673,10.7382806 19.6542966,10.5703135 19.7050781,10.3710938 L20.8886719,10.3710938 C20.8691405,10.519532 20.8251957,10.6708977 20.7568359,10.8251953 C20.6884762,10.979493 20.5869147,11.1337883 20.4521484,11.2880859 C20.3173821,11.4423836 20.158204,11.579101 19.9746094,11.6982422 C19.7910147,11.8173834 19.5664076,11.9150387 19.3007812,11.9912109 C19.0351549,12.0673832 18.7480484,12.1054688 18.4394531,12.1054688 Z M16.921875,8.37304688 L19.7988281,8.37304688 L19.7988281,8.28515625 C19.7988281,7.81249764 19.6679701,7.43261862 19.40625,7.14550781 C19.1445299,6.858397 18.7968772,6.71484375 18.3632812,6.71484375 C17.9296853,6.71484375 17.581056,6.858397 17.3173828,7.14550781 C17.0537096,7.43261862 16.921875,7.81249764 16.921875,8.28515625 L16.921875,8.37304688 Z M22.3828125,7.60546875 C22.3828125,7.28124838 22.4462884,6.99511843 22.5732422,6.74707031 C22.7001959,6.4990222 22.8749989,6.30078199 23.0976562,6.15234375 C23.3203136,6.00390551 23.5693346,5.8925785 23.8447266,5.81835938 C24.1201186,5.74414025 24.416014,5.70703125 24.7324219,5.70703125 C25.4082065,5.70703125 25.9521464,5.8671859 26.3642578,6.1875 C26.7763692,6.5078141 26.9824219,6.9374973 26.9824219,7.4765625 L25.9042969,7.4765625 C25.8808593,7.24999887 25.765626,7.05468832 25.5585937,6.890625 C25.3515615,6.72656168 25.064455,6.64453125 24.6972656,6.64453125 C24.3457014,6.64453125 24.0615245,6.71972581 23.8447266,6.87011719 C23.6279286,7.02050856 23.5195312,7.2285143 23.5195312,7.49414062 C23.5195312,7.64648514 23.5556637,7.7753901 23.6279297,7.88085938 C23.7001957,7.98632865 23.8193351,8.07128874 23.9853516,8.13574219 C24.151368,8.20019563 24.289062,8.24609361 24.3984375,8.2734375 C24.507813,8.30078139 24.6777332,8.33398418 24.9082031,8.37304688 C24.9824222,8.38476568 25.0371092,8.39453121 25.0722656,8.40234375 C25.3886735,8.45703152 25.6601551,8.521484 25.8867187,8.59570312 C26.1132824,8.66992225 26.328124,8.77148373 26.53125,8.90039062 C26.734376,9.02929752 26.8876948,9.19726459 26.9912109,9.40429688 C27.0947271,9.61132916 27.1464844,9.85546734 27.1464844,10.1367188 C27.1464844,10.7539093 26.9199241,11.2363264 26.4667969,11.5839844 C26.0136696,11.9316424 25.4023476,12.1054688 24.6328125,12.1054688 C23.9140589,12.1054688 23.3398459,11.9482438 22.9101562,11.6337891 C22.4804666,11.3193344 22.265625,10.8886746 22.265625,10.3417969 L23.4199219,10.3417969 C23.5019535,10.8964871 23.9257774,11.1738281 24.6914062,11.1738281 C25.1289084,11.1738281 25.4550771,11.0917977 25.6699219,10.9277344 C25.8847667,10.7636711 25.9921875,10.5488295 25.9921875,10.2832031 C25.9921875,10.1347649 25.9570316,10.0087896 25.8867187,9.90527344 C25.8164059,9.80175729 25.7089851,9.71875031 25.5644531,9.65625 C25.4199212,9.59374969 25.2714851,9.54296895 25.1191406,9.50390625 C24.9667961,9.46484355 24.7773449,9.42382834 24.5507812,9.38085938 L24.4453125,9.36328125 C24.1874987,9.31249975 23.9687509,9.261719 23.7890625,9.2109375 C23.6093741,9.160156 23.4238291,9.08886765 23.2324219,8.99707031 C23.0410147,8.90527298 22.8886724,8.80078184 22.7753906,8.68359375 C22.6621088,8.56640566 22.5683597,8.4169931 22.4941406,8.23535156 C22.4199215,8.05371003 22.3828125,7.84375119 22.3828125,7.60546875 Z M29.1738281,5.84765625 L29.1738281,4.30078125 L30.3398437,4.30078125 L30.3398437,5.84765625 L31.7285156,5.84765625 L31.7285156,6.84960938 L30.3398437,6.84960938 L30.3398437,10.1660156 C30.3398437,10.5019548 30.409179,10.7304681 30.5478516,10.8515625 C30.6865241,10.9726569 30.9394513,11.0332031 31.3066406,11.0332031 C31.5058604,11.0332031 31.6718743,11.0253907 31.8046875,11.0097656 L31.8046875,11.9882812 C31.6484367,12.0273439 31.3847675,12.046875 31.0136719,12.046875 C30.6425763,12.046875 30.3369153,12.0136722 30.0966797,11.9472656 C29.8564441,11.880859 29.6669929,11.7705086 29.5283203,11.6162109 C29.3896477,11.4619133 29.2939456,11.2783214 29.2412109,11.0654297 C29.1884763,10.852538 29.1621094,10.583986 29.1621094,10.2597656 L29.1621094,6.84960938 L28.21875,6.84960938 L28.21875,5.84765625 L29.1738281,5.84765625 Z" id="Guest" fill="#EED9B7"></path>
                    </g>
                    <g id="Tab" transform="translate(62.000000, 5.000000)" fill="#5D5B5C">
                        <rect id="Path" x="0" y="5" width="40" height="4"></rect>
                    </g>
                </g>
                <g id="Host" transform="translate(146.000000, 0.000000)">
                    <g id="Frame">
                        <use fill="#343233" fill-rule="evenodd" xlink:href="#path-5"></use>
                        <rect stroke="#4D4B4C" stroke-width="2" x="1" y="1" width="210" height="122" rx="5"></rect>
                    </g>
                    <g id="Buffer">
                        <use fill="#3D3B3C" fill-rule="evenodd" xlink:href="#path-6"></use>
                        <path stroke="#4D4B4C" stroke-width="2" d="M111,1 L53,1 L53,123 L207,123 C209.209139,123 211,121.209139 211,119 L211,19 L111,19 L111,1 Z"></path>
                    </g>
                    <g id="Code" transform="translate(64.000000, 38.000000)">
                        <path d="M0,30 L30,30 L30,34 L0,34 L0,30 Z M34,28 L36,28 L36,36 L34,36 L34,28 Z" id="Line" fill="#78AF9F"></path>
                        <path d="M0,50 L80,50 L80,54 L0,54 L0,50 Z M0,60 L100,60 L100,64 L0,64 L0,60 Z M0,70 L50,70 L50,74 L0,74 L0,70 Z M104,58 L106,58 L106,66 L104,66 L104,58 Z" id="User" fill="#659CC8"></path>
                        <path d="M0,0 L70,0 L70,4 L0,4 L0,0 Z M0,10 L50,10 L50,14 L0,14 L0,10 Z M54,8 L56,8 L56,16 L54,16 L54,8 Z" id="User" fill="#DDA032"></path>
                    </g>
                    <g id="Tree-View" transform="translate(11.000000, 12.000000)">
                        <path d="M0,66 L14,66 L14,70 L0,70 L0,66 Z M0,56 L28,56 L28,60 L0,60 L0,56 Z M0,46 L30,46 L30,50 L0,50 L0,46 Z M0,36 L18,36 L18,40 L0,40 L0,36 Z M0,26 L28,26 L28,30 L0,30 L0,26 Z" id="list" fill="#5D5B5C"></path>
                        <path d="M8.51757812,13 L7.109375,13 L7.109375,8.85058594 L2.66601562,8.85058594 L2.66601562,13 L1.2578125,13 L1.2578125,3.66894531 L2.66601562,3.66894531 L2.66601562,7.55175781 L7.109375,7.55175781 L7.109375,3.66894531 L8.51757812,3.66894531 L8.51757812,13 Z M13.78125,5.65820312 C14.7154995,5.65820312 15.4754202,5.94986687 16.0610352,6.53320312 C16.6466501,7.11653938 16.9394531,7.90722157 16.9394531,8.90527344 L16.9394531,9.85546875 C16.9394531,10.8763072 16.6477894,11.6761039 16.0644531,12.2548828 C15.4811169,12.8336617 14.7200568,13.1230469 13.78125,13.1230469 C12.8287713,13.1230469 12.0631539,12.8359404 11.484375,12.2617188 C10.9055961,11.6874971 10.6162109,10.8854218 10.6162109,9.85546875 L10.6162109,8.90527344 C10.6162109,7.93000814 10.9112926,7.1450225 11.5014648,6.55029297 C12.0916371,5.95556343 12.8515579,5.65820312 13.78125,5.65820312 Z M13.7880859,6.86132812 C13.2412082,6.86132812 12.8071305,7.05956833 12.4858398,7.45605469 C12.1645492,7.85254104 12.0039062,8.36067398 12.0039062,8.98046875 L12.0039062,9.80078125 C12.0039062,10.4296906 12.1599919,10.9401022 12.472168,11.3320312 C12.784344,11.7239603 13.2229789,11.9199219 13.7880859,11.9199219 C14.3486356,11.9199219 14.7827133,11.7250996 15.090332,11.3354492 C15.3979508,10.9457988 15.5517578,10.434248 15.5517578,9.80078125 L15.5517578,8.98046875 C15.5517578,8.35611667 15.3945328,7.84684442 15.0800781,7.45263672 C14.7656234,7.05842902 14.3349637,6.86132812 13.7880859,6.86132812 Z M18.6279297,7.87304688 C18.6279297,7.49478978 18.7019849,7.1609715 18.8500977,6.87158203 C18.9982104,6.58219256 19.2021471,6.35091232 19.4619141,6.17773438 C19.721681,6.00455643 20.0122054,5.87467491 20.3334961,5.78808594 C20.6547868,5.70149696 20.9999982,5.65820312 21.3691406,5.65820312 C22.157556,5.65820312 22.7921525,5.84505021 23.2729492,6.21875 C23.7537459,6.59244979 23.9941406,7.09374686 23.9941406,7.72265625 L22.7363281,7.72265625 C22.7089842,7.45833201 22.5745455,7.23046971 22.3330078,7.0390625 C22.0914701,6.84765529 21.7565126,6.75195312 21.328125,6.75195312 C20.9179667,6.75195312 20.586427,6.83968011 20.3334961,7.01513672 C20.0805651,7.19059333 19.9541016,7.43326668 19.9541016,7.74316406 C19.9541016,7.92089933 19.9962561,8.07128845 20.0805664,8.19433594 C20.1648767,8.31738343 20.3038727,8.41650353 20.4975586,8.49169922 C20.6912445,8.56689491 20.8518874,8.62044255 20.9794922,8.65234375 C21.107097,8.68424495 21.3053372,8.72298154 21.5742188,8.76855469 C21.6608077,8.78222663 21.7246092,8.79361975 21.765625,8.80273438 C22.1347675,8.86653678 22.4514961,8.94173134 22.7158203,9.02832031 C22.9801446,9.11490929 23.2307931,9.23339769 23.4677734,9.38378906 C23.7047538,9.53418044 23.8836257,9.73014202 24.0043945,9.97167969 C24.1251634,10.2132174 24.1855469,10.4980452 24.1855469,10.8261719 C24.1855469,11.5462276 23.9212266,12.1090475 23.3925781,12.5146484 C22.8639296,12.9202494 22.1507206,13.1230469 21.2529297,13.1230469 C20.4143838,13.1230469 19.7444687,12.9396177 19.2431641,12.5727539 C18.7418595,12.2058901 18.4912109,11.7034537 18.4912109,11.0654297 L19.8378906,11.0654297 C19.9335942,11.7125683 20.4280554,12.0361328 21.3212891,12.0361328 C21.8317083,12.0361328 22.2122383,11.9404306 22.4628906,11.7490234 C22.7135429,11.5576162 22.8388672,11.3069677 22.8388672,10.9970703 C22.8388672,10.8238924 22.797852,10.6769212 22.7158203,10.5561523 C22.6337887,10.4353835 22.5084644,10.338542 22.3398438,10.265625 C22.1712231,10.192708 21.9980478,10.1334638 21.8203125,10.0878906 C21.6425772,10.0423175 21.4215508,9.9944664 21.1572266,9.94433594 L21.0341797,9.92382812 C20.7333969,9.86458304 20.4781912,9.80533884 20.2685547,9.74609375 C20.0589182,9.68684866 19.842449,9.60367892 19.6191406,9.49658203 C19.3958322,9.38948514 19.2180996,9.26757881 19.0859375,9.13085938 C18.9537754,8.99413994 18.8444015,8.81982528 18.7578125,8.60791016 C18.6712235,8.39599503 18.6279297,8.15104306 18.6279297,7.87304688 Z M26.5507812,5.82226562 L26.5507812,4.01757812 L27.9111328,4.01757812 L27.9111328,5.82226562 L29.53125,5.82226562 L29.53125,6.99121094 L27.9111328,6.99121094 L27.9111328,10.8603516 C27.9111328,11.2522806 27.9920239,11.5188795 28.1538086,11.6601562 C28.3155933,11.801433 28.6106749,11.8720703 29.0390625,11.8720703 C29.2714855,11.8720703 29.4651685,11.8629558 29.6201172,11.8447266 L29.6201172,12.9863281 C29.4378246,13.0319013 29.1302105,13.0546875 28.6972656,13.0546875 C28.2643208,13.0546875 27.9077162,13.0159509 27.6274414,12.9384766 C27.3471666,12.8610022 27.1261401,12.73226 26.9643555,12.5522461 C26.8025708,12.3722322 26.6909183,12.1580416 26.6293945,11.909668 C26.5678708,11.6612943 26.5371094,11.3479837 26.5371094,10.9697266 L26.5371094,6.99121094 L25.4365234,6.99121094 L25.4365234,5.82226562 L26.5507812,5.82226562 Z" id="Host" fill="#EED9B7"></path>
                    </g>
                    <g id="Tab" transform="translate(62.000000, 5.000000)" fill="#5D5B5C">
                        <rect id="Path" x="0" y="5" width="40" height="4"></rect>
                    </g>
                </g>
            </g>
        </g>
    </g>
</svg>